<?xml version="1.0" standalone="no"?>
<!DOCTYPE svg PUBLIC "-//W3C//DTD SVG 20010904//EN"
 "http://www.w3.org/TR/2001/REC-SVG-20010904/DTD/svg10.dtd">
<svg version="1.0" xmlns="http://www.w3.org/2000/svg"
 width="98.000000pt" height="85.000000pt" viewBox="0 0 98.000000 85.000000"
 preserveAspectRatio="xMidYMid meet">

<g transform="translate(0.000000,85.000000) scale(0.100000,-0.100000)"
fill="#202020" class='icons__svg' stroke="none" >
<path d="M368 617 l-197 -72 -3 -109 c-2 -59 0 -112 3 -117 4 -7 207 15 322
36 26 4 27 2 27 -34 l0 -38 -172 -19 -173 -19 -3 -37 c-3 -36 -5 -38 -38 -38
-19 0 -34 -4 -34 -10 0 -6 135 -10 385 -10 250 0 385 4 385 10 0 6 -16 10 -35
10 l-36 0 2 132 1 132 -31 9 c-26 6 -31 12 -31 37 0 27 2 29 30 24 30 -6 30
-6 30 39 0 25 2 51 5 59 4 9 -26 24 -97 51 -57 20 -112 37 -123 36 -11 0 -109
-33 -217 -72z m322 9 c79 -31 85 -35 88 -64 l3 -31 -100 34 -99 33 -147 -43
c-81 -24 -148 -45 -150 -47 -2 -2 -5 -25 -6 -53 -3 -40 0 -50 14 -53 9 -2 74
8 143 22 70 14 131 26 136 26 4 0 8 -63 8 -140 l0 -140 -195 0 -195 0 0 23 c0
23 4 24 171 43 l172 19 -1 63 c0 35 -2 65 -4 67 -2 3 -79 -6 -171 -18 l-167
-24 0 87 0 87 193 71 c105 39 199 71 207 71 8 0 53 -15 100 -33z m-28 -88 c65
-21 68 -23 68 -54 l0 -32 -52 14 c-73 19 -107 18 -248 -11 -68 -14 -125 -25
-127 -25 -2 0 -3 12 -1 27 3 25 11 29 128 64 69 21 134 38 144 38 11 1 50 -9
88 -21z m33 -109 l85 -21 0 -119 0 -119 -95 0 -95 0 0 140 c0 90 4 140 10 140
6 0 49 -10 95 -21z"/>
<path d="M220 285 c0 -14 5 -25 10 -25 6 0 10 11 10 25 0 14 -4 25 -10 25 -5
0 -10 -11 -10 -25z"/>
</g>
</svg>
