<?xml version="1.0" standalone="no"?>
<!DOCTYPE svg PUBLIC "-//W3C//DTD SVG 20010904//EN"
 "http://www.w3.org/TR/2001/REC-SVG-20010904/DTD/svg10.dtd">
<svg version="1.0" xmlns="http://www.w3.org/2000/svg"
 width="98.000000pt" height="85.000000pt" viewBox="0 0 98.000000 85.000000"
 preserveAspectRatio="xMidYMid meet">

<g transform="translate(0.000000,85.000000) scale(0.100000,-0.100000)"
fill="#202020" class='icons__svg' stroke="none">
<path d="M313 598 l-162 -113 -1 -157 c0 -99 4 -158 10 -158 6 0 10 56 10 148
l0 149 154 106 c84 59 157 107 161 107 4 0 77 -48 161 -107 l154 -106 0 -149
c0 -92 4 -148 10 -148 6 0 10 59 10 158 l-1 157 -159 110 c-87 61 -165 111
-172 113 -7 1 -86 -49 -175 -110z"/>
<path d="M373 444 l-63 -45 0 -125 0 -124 -105 0 c-63 0 -105 -4 -105 -10 0
-6 137 -10 390 -10 253 0 390 4 390 10 0 6 -42 10 -105 10 l-105 0 0 124 0
125 -64 45 c-35 26 -69 46 -75 46 -8 0 -11 -51 -11 -170 l0 -170 -30 0 -30 0
0 170 c0 129 -3 170 -12 170 -7 0 -41 -21 -75 -46z m64 -90 c-6 -7 -82 22 -80
30 1 4 19 21 40 36 l38 29 3 -46 c2 -25 1 -47 -1 -49z m193 29 c0 -4 -28 -15
-67 -27 -22 -7 -23 -5 -23 44 l0 51 45 -32 c25 -18 45 -34 45 -36z m-222 -49
l32 -13 0 -85 0 -86 -55 0 -55 0 0 106 c0 118 -6 112 78 78z m242 -79 l0 -105
-55 0 -56 0 3 87 3 87 45 18 c25 9 48 17 53 17 4 1 7 -46 7 -104z"/>
</g>
</svg>
