<?xml version="1.0" standalone="no"?>
<!DOCTYPE svg PUBLIC "-//W3C//DTD SVG 20010904//EN"
 "http://www.w3.org/TR/2001/REC-SVG-20010904/DTD/svg10.dtd">
<svg version="1.0" xmlns="http://www.w3.org/2000/svg"
 width="98.000000pt" height="85.000000pt" viewBox="0 0 98.000000 85.000000"
 preserveAspectRatio="xMidYMid meet">

<g transform="translate(0.000000,85.000000) scale(0.100000,-0.100000)"
fill="#202020" class='icons__svg' stroke="none">
<path d="M505 640 c-77 -21 -159 -43 -182 -49 -42 -11 -42 -12 -45 -64 -3 -48
-5 -52 -32 -57 l-28 -5 1 -127 c2 -110 0 -128 -13 -128 -9 0 -16 -9 -16 -20 0
-20 7 -20 295 -20 288 0 295 0 295 20 0 11 -7 20 -15 20 -13 0 -15 28 -15 193
l0 192 -49 43 c-28 23 -51 42 -53 41 -2 -1 -66 -18 -143 -39z m181 -36 c40
-33 44 -41 44 -80 0 -24 -4 -44 -8 -44 -4 0 -25 18 -46 39 -29 30 -43 37 -55
31 -9 -5 -77 -21 -151 -35 -74 -15 -143 -29 -152 -31 -15 -4 -18 1 -18 30 0
33 3 36 43 47 41 11 289 77 295 78 2 1 24 -15 48 -35z m-5 -135 l49 -41 0
-109 0 -109 -30 0 -30 0 0 75 0 75 -190 0 -190 0 0 -75 c0 -73 -1 -75 -25 -75
l-25 0 0 113 0 113 183 36 c100 20 188 36 196 37 7 0 35 -17 62 -40z m-21
-194 l0 -65 -180 0 -180 0 0 65 0 65 180 0 180 0 0 -65z"/>
</g>
</svg>
