<?xml version="1.0" standalone="no"?>
<!DOCTYPE svg PUBLIC "-//W3C//DTD SVG 20010904//EN"
 "http://www.w3.org/TR/2001/REC-SVG-20010904/DTD/svg10.dtd">
<svg version="1.0" xmlns="http://www.w3.org/2000/svg"
 width="98.000000pt" height="85.000000pt" viewBox="0 0 98.000000 85.000000"
 preserveAspectRatio="xMidYMid meet">

<g transform="translate(0.000000,85.000000) scale(0.100000,-0.100000)"
fill="#202020" class='icons__svg' stroke="none">
<path d="M290 660 c0 -68 1 -70 25 -70 22 0 25 -4 25 -35 0 -35 0 -35 -45 -35
l-45 0 0 -190 0 -190 -30 0 c-20 0 -30 -5 -30 -15 0 -13 39 -15 295 -15 256 0
295 2 295 15 0 10 -10 15 -30 15 l-30 0 0 295 0 295 -215 0 -215 0 0 -70z
m410 -245 c0 -238 -2 -275 -15 -275 -12 0 -15 18 -15 105 l0 106 -52 77 c-28
42 -56 80 -62 84 -6 4 -53 8 -103 8 l-93 0 0 50 c0 47 -2 50 -25 50 -22 0 -25
4 -25 35 l0 35 195 0 195 0 0 -275z m-102 -15 l52 -80 0 -90 0 -90 -110 0
-110 0 0 105 0 105 -45 0 -45 0 0 -105 0 -105 -35 0 -35 0 0 170 0 170 138 0
137 0 53 -80z m-188 -170 c0 -89 0 -90 -25 -90 -25 0 -25 1 -25 90 0 89 0 90
25 90 25 0 25 -1 25 -90z"/>
</g>
</svg>
