<?xml version="1.0" standalone="no"?>
<!DOCTYPE svg PUBLIC "-//W3C//DTD SVG 20010904//EN"
 "http://www.w3.org/TR/2001/REC-SVG-20010904/DTD/svg10.dtd">
<svg version="1.0" xmlns="http://www.w3.org/2000/svg"
 width="98.000000pt" height="85.000000pt" viewBox="0 0 98.000000 85.000000"
 preserveAspectRatio="xMidYMid meet">

<g transform="translate(0.000000,85.000000) scale(0.100000,-0.100000)"
fill="#202020" class='icons__svg'  stroke="none">
<path d="M280 675 c0 -38 -3 -45 -20 -45 -16 0 -20 -7 -20 -30 0 -23 4 -30 20
-30 16 0 20 -7 20 -35 0 -33 -2 -35 -35 -35 l-35 0 0 -175 0 -175 -40 0 c-22
0 -40 -4 -40 -10 0 -6 127 -10 360 -10 233 0 360 4 360 10 0 6 -16 10 -35 10
l-35 0 0 245 c0 135 -3 245 -8 245 -4 0 -36 -34 -72 -75 l-65 -75 -3 115 -3
115 -174 0 -175 0 0 -45z m330 -250 c0 -268 0 -275 -20 -275 -19 0 -20 7 -20
91 l0 91 -67 84 -66 84 -69 0 -68 0 0 45 c0 38 -3 45 -20 45 -11 0 -20 5 -20
10 0 6 9 10 20 10 17 0 20 7 20 45 l0 45 155 0 155 0 0 -275z m150 -55 l0
-220 -65 0 -65 0 0 148 0 147 63 72 c34 39 63 72 65 72 1 1 2 -98 2 -219z
m-277 26 l67 -84 0 -81 0 -81 -160 0 -160 0 0 165 0 165 93 0 94 0 66 -84z"/>
<path d="M340 603 l0 -63 114 0 114 0 6 31 c3 17 6 46 6 63 l0 31 -120 0 -120
0 0 -62z m220 -3 l0 -50 -105 0 -105 0 0 50 0 50 105 0 105 0 0 -50z"/>
<path d="M680 360 c0 -63 2 -70 20 -70 18 0 20 7 20 70 0 63 -2 70 -20 70 -18
0 -20 -7 -20 -70z m30 0 c0 -33 -4 -60 -10 -60 -6 0 -10 27 -10 60 0 33 4 60
10 60 6 0 10 -27 10 -60z"/>
</g>
</svg>
