<?xml version="1.0" standalone="no"?>
<!DOCTYPE svg PUBLIC "-//W3C//DTD SVG 20010904//EN"
 "http://www.w3.org/TR/2001/REC-SVG-20010904/DTD/svg10.dtd">
<svg version="1.0" xmlns="http://www.w3.org/2000/svg"
 width="98.000000pt" height="85.000000pt" viewBox="0 0 98.000000 85.000000"
 preserveAspectRatio="xMidYMid meet">

<g transform="translate(0.000000,85.000000) scale(0.100000,-0.100000)"
fill="#202020" class='icons__svg' stroke="none">
<path d="M415 644 c-132 -63 -241 -118 -243 -124 -2 -6 21 -10 57 -10 l61 0 0
-45 0 -45 -50 0 -50 0 0 -155 c0 -148 -1 -155 -20 -155 -11 0 -20 -7 -20 -15
0 -13 44 -15 335 -15 291 0 335 2 335 15 0 8 -9 15 -20 15 -18 0 -20 7 -20 70
0 63 -2 70 -20 70 -19 0 -20 7 -20 130 l0 130 35 0 c19 0 35 5 35 10 0 19
-134 240 -145 239 -5 0 -118 -52 -250 -115z m307 -12 l56 -97 -135 -3 c-74 -1
-193 -1 -266 0 l-131 3 204 97 c113 53 207 97 210 97 3 0 30 -43 62 -97z m-2
-322 l0 -200 -85 0 -85 0 0 95 0 95 -45 0 -45 0 0 60 0 60 -75 0 -75 0 0 45 0
45 205 0 205 0 0 -200z m-280 -60 l0 -140 -115 0 -115 0 0 140 0 140 115 0
115 0 0 -140z m100 -60 l0 -80 -40 0 -40 0 0 80 0 80 40 0 40 0 0 -80z m230
-20 c0 -47 -3 -60 -15 -60 -12 0 -15 13 -15 60 0 47 3 60 15 60 12 0 15 -13
15 -60z"/>
</g>
</svg>
